<?xml version="1.0" encoding="utf-8"?>
<!-- Generator: Adobe Illustrator 22.0.1, SVG Export Plug-In . SVG Version: 6.00 Build 0)  -->
<svg version="1.1" id="Слой_1" xmlns="http://www.w3.org/2000/svg" xmlns:xlink="http://www.w3.org/1999/xlink" x="0px" y="0px"
	 viewBox="0 0 1200 1246.1" style="enable-background:new 0 0 1200 1246.1;" xml:space="preserve">
<style type="text/css">
	.st0{clip-path:url(#SVGID_2_);}
	.st1{display:none;fill:none;stroke:url(#SVGID_3_);stroke-width:3;stroke-miterlimit:10;}
	.st2{fill:#FFE66F;}
	.st3{fill:url(#SVGID_4_);}
	.st4{fill:url(#SVGID_5_);}
	.st5{display:none;fill:url(#SVGID_6_);}
	.st6{display:none;fill:none;stroke:url(#SVGID_7_);stroke-width:3;stroke-miterlimit:10;}
	.st7{fill:url(#SVGID_8_);}
	.st8{fill:url(#SVGID_9_);}
	.st9{display:none;fill:url(#SVGID_10_);}
</style>
<defs>
	<rect id="SVGID_1_" width="1198.2" height="1246.1"/>
</defs>
<clipPath id="SVGID_2_">
	<use xlink:href="#SVGID_1_"  style="overflow:visible;"/>
</clipPath>
<g class="st0">
	<g>
		<linearGradient id="SVGID_3_" gradientUnits="userSpaceOnUse" x1="753.9405" y1="1161.4656" x2="1909.6913" y2="1161.4656">
			<stop  offset="0.3622" style="stop-color:#FCC751"/>
			<stop  offset="1" style="stop-color:#FFFFFF"/>
		</linearGradient>
		<path class="st1" d="M754.6,1085.2c0,0,81.3,40.5,131.2,30.5c43.6-8.7,70.1-22.5,123.1-15.2c114.9,16,137.2,75.5,245.2,75.5
			c131.5,0,159.4-60.3,253.7-56.5c222,9,285,117.9,402,117.9"/>
		<g>
			<path class="st2" d="M811.9,862.4c0,0-0.7-438.4-0.7-438.6l-994.4,2.6v811c17.1,0,210.4,0,210.4,0c18.5-0.5,118.3-7.6,165.2-13.3
				c46.7-5.7,89.9-32.1,120-41.4c73.5-22.9,164.3-15.1,219.4-11.6c30.9,2,49.1,0.4,119-34c63-31,130-17,130-17s147,27,181-59
				c15.6-39.3-0.3-127.7,9-169c1.5-6.7,6.3-18.7,11.2-30C980.6,865.6,811.9,862.4,811.9,862.4z"/>
			<linearGradient id="SVGID_4_" gradientUnits="userSpaceOnUse" x1="1326.7963" y1="438.4669" x2="811.9022" y2="411.4825">
				<stop  offset="0" style="stop-color:#FAAC37"/>
				<stop  offset="0.2371" style="stop-color:#FBBC47"/>
				<stop  offset="0.6946" style="stop-color:#FFE66F"/>
			</linearGradient>
			<polygon class="st3" points="811.3,423.8 811.3,423.9 1283.8,423.8 			"/>
			<path class="st2" d="M1318.8,456c-3.2-7.5-7.3-14.3-11.1-19.7c-5.5-7.9-14.4-12.5-24-12.5l-472.5,0.1c0,0.2,0.7,438.6,0.7,438.6
				s168.7,3.1,170.1-0.2c8.5-19.6,22.7-36.8,42.1-45.8c60.7-28.2,105.4,12.2,148.7-39.2c37-44,11.6-110.3,9.3-119.1
				c-0.2-0.7-0.3-1.4-0.5-2.1c-1.2-6.5-7-38.3-6.8-49.8c0.2-9.9,0-78.3,67-83c14.2-1,34.6,8.3,57,0c18.4-6.9,25.3-30,25.3-35
				C1324.2,484,1323.7,467.4,1318.8,456z"/>
			<linearGradient id="SVGID_5_" gradientUnits="userSpaceOnUse" x1="1315.3375" y1="657.1111" x2="800.4493" y2="630.127">
				<stop  offset="0" style="stop-color:#FAAC37"/>
				<stop  offset="0.2371" style="stop-color:#FBBC47"/>
				<stop  offset="0.6946" style="stop-color:#FFE66F"/>
			</linearGradient>
			<path class="st4" d="M1318.8,456c-3.2-7.5-7.3-14.3-11.1-19.7c-5.5-7.9-14.4-12.5-24-12.5l-472.5,0.1c0,0.2,0.7,438.6,0.7,438.6
				s168.7,3.1,170.1-0.2c8.5-19.6,22.7-36.8,42.1-45.8c60.7-28.2,105.4,12.2,148.7-39.2c37-44,11.6-110.3,9.3-119.1
				c-0.2-0.7-0.3-1.4-0.5-2.1c-1.2-6.5-7-38.3-6.8-49.8c0.2-9.9,0-78.3,67-83c14.2-1,34.6,8.3,57,0c18.4-6.9,25.3-30,25.3-35
				C1324.2,484,1323.7,467.4,1318.8,456z"/>
		</g>
	</g>
	<linearGradient id="SVGID_6_" gradientUnits="userSpaceOnUse" x1="-183.1001" y1="832.0178" x2="317.5963" y2="832.0178">
		<stop  offset="0" style="stop-color:#FFFFFF"/>
		<stop  offset="0.2882" style="stop-color:#FFF8D5"/>
		<stop  offset="1" style="stop-color:#FFE66F"/>
	</linearGradient>
	<path class="st5" d="M250.7,1205.5c-39,32-200,30.7-200,30.7l-233.8,1.3v-811h433.8C250.7,426.5,401.2,1082,250.7,1205.5z"/>
</g>
<g class="st0">
	<g>
		
			<linearGradient id="SVGID_7_" gradientUnits="userSpaceOnUse" x1="2533.856" y1="743.2267" x2="3689.6067" y2="743.2267" gradientTransform="matrix(1 0 0 -1 -1779.9155 432.3162)">
			<stop  offset="0.3622" style="stop-color:#FCC751"/>
			<stop  offset="1" style="stop-color:#FFFFFF"/>
		</linearGradient>
		<path class="st6" d="M754.6-234.7c0,0,81.3-40.5,131.2-30.5c43.6,8.7,70.1,22.5,123.1,15.2c114.9-16,137.2-75.5,245.2-75.5
			c131.5,0,159.4,60.3,253.7,56.5c222-9,285-117.9,402-117.9"/>
		<g>
			<path class="st2" d="M811.9-11.9c0,0-0.7,438.4-0.7,438.6l-994.4-2.6v-811c17.1,0,210.4,0,210.4,0c18.5,0.5,118.3,7.6,165.2,13.3
				c46.7,5.7,89.9,32.1,120,41.4c73.5,22.9,164.3,15.1,219.4,11.6c30.9-2,49.1-0.4,119,34c63,31,130,17,130,17s147-27,181,59
				c15.6,39.3-0.3,127.7,9,169c1.5,6.7,6.3,18.7,11.2,30C980.6-15,811.9-11.9,811.9-11.9z"/>
			
				<linearGradient id="SVGID_8_" gradientUnits="userSpaceOnUse" x1="3106.7117" y1="20.2281" x2="2591.8179" y2="-6.7563" gradientTransform="matrix(1 0 0 -1 -1779.9155 432.3162)">
				<stop  offset="0" style="stop-color:#FAAC37"/>
				<stop  offset="0.2371" style="stop-color:#FBBC47"/>
				<stop  offset="0.6946" style="stop-color:#FFE66F"/>
			</linearGradient>
			<polygon class="st7" points="811.3,426.8 811.3,426.7 1283.8,426.8 			"/>
			<path class="st2" d="M1318.8,394.6c-3.2,7.5-7.3,14.3-11.1,19.7c-5.5,7.9-14.4,12.5-24,12.5l-472.5-0.1
				c0-0.2,0.7-438.6,0.7-438.6S980.6-15,982-11.7c8.5,19.6,22.7,36.8,42.1,45.8c60.7,28.2,105.4-12.2,148.7,39.2
				c37,44,11.6,110.3,9.3,119.1c-0.2,0.7-0.3,1.4-0.5,2.1c-1.2,6.5-7,38.3-6.8,49.8c0.2,9.9,0,78.3,67,83c14.2,1,34.6-8.3,57,0
				c18.4,6.9,25.3,30,25.3,35C1324.2,366.6,1323.7,383.2,1318.8,394.6z"/>
			
				<linearGradient id="SVGID_9_" gradientUnits="userSpaceOnUse" x1="3095.2529" y1="238.8723" x2="2580.3647" y2="211.8881" gradientTransform="matrix(1 0 0 -1 -1779.9155 432.3162)">
				<stop  offset="0" style="stop-color:#FAAC37"/>
				<stop  offset="0.2371" style="stop-color:#FBBC47"/>
				<stop  offset="0.6946" style="stop-color:#FFE66F"/>
			</linearGradient>
			<path class="st8" d="M1318.8,394.6c-3.2,7.5-7.3,14.3-11.1,19.7c-5.5,7.9-14.4,12.5-24,12.5l-472.5-0.1
				c0-0.2,0.7-438.6,0.7-438.6S980.6-15,982-11.7c8.5,19.6,22.7,36.8,42.1,45.8c60.7,28.2,105.4-12.2,148.7,39.2
				c37,44,11.6,110.3,9.3,119.1c-0.2,0.7-0.3,1.4-0.5,2.1c-1.2,6.5-7,38.3-6.8,49.8c0.2,9.9,0,78.3,67,83c14.2,1,34.6-8.3,57,0
				c18.4,6.9,25.3,30,25.3,35C1324.2,366.6,1323.7,383.2,1318.8,394.6z"/>
		</g>
	</g>
	
		<linearGradient id="SVGID_10_" gradientUnits="userSpaceOnUse" x1="1596.8154" y1="413.7789" x2="2097.512" y2="413.7789" gradientTransform="matrix(1 0 0 -1 -1779.9155 432.3162)">
		<stop  offset="0" style="stop-color:#FFFFFF"/>
		<stop  offset="0.2882" style="stop-color:#FFF8D5"/>
		<stop  offset="1" style="stop-color:#FFE66F"/>
	</linearGradient>
	<path class="st9" d="M250.7-355c-39-32-200-30.7-200-30.7l-233.8-1.3v811h433.8C250.7,424,401.2-231.4,250.7-355z"/>
</g>
</svg>
