<?xml version="1.0" encoding="utf-8"?>
<!-- Generator: Adobe Illustrator 22.0.1, SVG Export Plug-In . SVG Version: 6.00 Build 0)  -->
<svg version="1.1" id="Слой_1" xmlns="http://www.w3.org/2000/svg" xmlns:xlink="http://www.w3.org/1999/xlink" x="0px" y="0px"
	 viewBox="0 0 138 290" style="enable-background:new 0 0 138 290;" xml:space="preserve">
<style type="text/css">
	.st0{fill:#FF312C;}
	.st1{fill:none;stroke:#070707;stroke-width:7;stroke-miterlimit:10;}
	.st2{fill:#A9CD0B;}
	.st3{display:none;}
	.st4{display:inline;}
	.st5{font-family:'BalsamiqSans-Bold';}
	.st6{font-size:26.6752px;}
	.st7{letter-spacing:2;}
	.st8{display:none;stroke:#000000;stroke-miterlimit:10;}
</style>
<g id="Слой_2">
</g>
<g>
	<path class="st0" d="M14.3,167.8c7.1-8.3,32.9-12.4,42.8-10.4c14,2.7,17.8,11.1,29.2,11.1s26.5-8.7,31-12.2s2.3,100.9,2.3,100.9
		l-68.4-3.4l-39.1,3.4L14.3,167.8z"/>
	<g>
		<g>
			<path d="M102.4,65.4h-74c-12.6,0-23.3,10.3-23.3,22.8v173.4c0,12.6,10.5,22.8,23,22.8l74.1-0.1c12.6,0,22.9-10.2,22.9-22.8
				l0.1-173.3C125.2,75.6,115,65.4,102.4,65.4z M54.7,79.1h21.5c1.9,0,3.4,1.5,3.4,3.4S78,86,76.1,86H54.7c-1.9,0-3.4-1.5-3.4-3.4
				C51.2,80.6,52.8,79.1,54.7,79.1z M41.8,80.2c1.3-1.3,3.6-1.3,4.8,0c0.6,0.6,1,1.5,1,2.4c0,0.9-0.4,1.8-1,2.4
				c-0.6,0.6-1.5,1-2.4,1c-0.9,0-1.8-0.4-2.4-1c-0.6-0.6-1-1.5-1-2.4C40.8,81.7,41.1,80.8,41.8,80.2z M64.7,277.7
				c-5.6,0-10.2-4.6-10.2-10.2c0-5.6,4.6-10.2,10.2-10.2c5.6,0,10.2,4.6,10.2,10.2C74.9,273.1,70.3,277.7,64.7,277.7z M114.6,250.2
				H17.1V97.9h97.5L114.6,250.2L114.6,250.2z"/>
		</g>
	</g>
	
		<rect x="83.2" y="8.7" transform="matrix(0.9565 0.2919 -0.2919 0.9565 31.8599 -23.5817)" class="st1" width="23.5" height="172.5"/>
	<path class="st2" d="M31.1,8c8.6-0.7,25.2,2.9,34.9,13.7c10.3,11.4,13.4,30.1,13.7,31.1c0.3,0.9-21.8-3.9-34.3-15.5
		C33.5,26,31.1,8,31.1,8z"/>
</g>
<text transform="matrix(1 0 0 1 41.7309 209.7014)" class="st3"><tspan x="0" y="0" class="st4 st5 st6 st7">LAZ</tspan><tspan x="-1.2" y="32" class="st4 st5 st6 st7">LAB</tspan></text>
<text transform="matrix(1 0 0 1 -11.7393 307.9805)" class="st7" style="display:none;fill:#FF312C; font-family:'Montserrat-Bold'; font-size:14.5995px;">SMART &amp; JUICY</text>
<rect x="54.5" y="216" class="st8" width="25.3" height="0.7"/>
</svg>
