<?xml version="1.0" encoding="utf-8"?>
<!-- Generator: Adobe Illustrator 22.0.1, SVG Export Plug-In . SVG Version: 6.00 Build 0)  -->
<svg version="1.1" id="Слой_1" xmlns="http://www.w3.org/2000/svg" xmlns:xlink="http://www.w3.org/1999/xlink" x="0px" y="0px"
	 viewBox="0 0 40 40" style="enable-background:new 0 0 40 40;" xml:space="preserve">
<style type="text/css">
	.st0{fill:#6F3FAA;}
	.st1{fill:#FFFFFF;}
</style>
<circle class="st0" cx="20" cy="20" r="20"/>
<g>
	<path class="st1" d="M28.3,18.1c0-3.3-2.8-6.3-6.3-6.7c-0.1,0-0.1,0-0.2,0c-0.2,0-0.4-0.1-0.5-0.1c-0.7,0-0.9,0.5-1,0.8
		c0,0.3,0,0.5,0.1,0.7c0.2,0.3,0.7,0.4,1,0.4c0.1,0,0.2,0,0.3,0c3.1,0.7,4.2,1.8,4.7,4.9c0,0.1,0,0.2,0,0.3c0,0.4,0.1,1.1,0.9,1.1h0
		c0.1,0,0.1,0,0.2,0c0.8-0.1,0.7-0.8,0.7-1.2C28.3,18.3,28.3,18.2,28.3,18.1C28.3,18.2,28.3,18.1,28.3,18.1z"/>
	<path class="st1" d="M21.1,10.2c0.1,0,0.2,0,0.3,0c5.1,0.8,7.5,3.2,8.1,8.4c0,0.1,0,0.2,0,0.3c0,0.4,0,1.2,0.9,1.3l0,0
		c0.3,0,0.5-0.1,0.7-0.3c0.3-0.3,0.3-0.7,0.2-1.1c0-0.1,0-0.2,0-0.2c0.1-5.3-4.5-10.1-9.8-10.3c0,0,0,0-0.1,0c0,0,0,0-0.1,0
		c-0.1,0-0.1,0-0.2,0c-0.1,0-0.2,0-0.3,0c-0.8,0-1,0.6-1,1C19.9,10.1,20.7,10.1,21.1,10.2z"/>
	<path class="st1" d="M29.2,25.3c-0.1-0.1-0.2-0.2-0.3-0.3c-0.6-0.5-1.2-0.9-1.7-1.3c-0.1-0.1-0.2-0.2-0.4-0.3
		c-0.7-0.5-1.4-0.8-2-0.8c-0.8,0-1.6,0.5-2.2,1.4c-0.3,0.4-0.6,0.6-1,0.6c-0.2,0-0.5-0.1-0.8-0.2c-2.4-1.1-4.1-2.7-5.1-4.9
		c-0.5-1.1-0.3-1.7,0.5-2.3c0.5-0.3,1.3-0.9,1.3-2.1c-0.1-1.3-2.9-5.2-4.1-5.6c-0.5-0.2-1-0.2-1.6,0C10.4,10.1,9.5,10.9,9,12
		c-0.5,1-0.5,2.3,0.1,3.5c1.5,3.7,3.6,6.9,6.3,9.5c2.6,2.6,5.8,4.7,9.5,6.3c0.3,0.1,0.7,0.2,0.9,0.3c0.1,0,0.2,0,0.2,0.1
		c0,0,0.1,0,0.1,0l0,0c0,0,0,0,0,0c1.7,0,3.8-1.6,4.5-3.4C31.1,26.7,30.1,25.9,29.2,25.3z"/>
	<path class="st1" d="M21.9,14.4c-0.3,0-0.9,0-1.1,0.7c-0.1,0.3-0.1,0.6,0,0.8c0.2,0.3,0.5,0.4,0.9,0.5c1.2,0.2,1.8,0.8,1.9,2
		c0.1,0.6,0.4,1,0.9,1h0c0,0,0.1,0,0.1,0c0.6-0.1,0.9-0.5,0.8-1.3c0-0.8-0.4-1.7-1.1-2.5C23.5,14.8,22.7,14.4,21.9,14.4z"/>
</g>
</svg>
