<?xml version="1.0" encoding="utf-8"?>
<!-- Generator: Adobe Illustrator 22.0.1, SVG Export Plug-In . SVG Version: 6.00 Build 0)  -->
<svg version="1.1" id="Capa_1" xmlns="http://www.w3.org/2000/svg" xmlns:xlink="http://www.w3.org/1999/xlink" x="0px" y="0px"
	 viewBox="0 0 40 40" style="enable-background:new 0 0 40 40;" xml:space="preserve">
<style type="text/css">
	.st0{fill:#4D76A1;}
	.st1{fill:#FFFFFF;}
</style>
<g>
	<g>
		<circle id="XMLID_11_" class="st0" cx="20" cy="20" r="20"/>
	</g>
	<path class="st1" d="M19.2,28.8h1.6c0,0,0.5-0.1,0.7-0.3c0.2-0.2,0.2-0.7,0.2-0.7s0-2.1,0.9-2.4c1-0.3,2.2,2,3.5,2.9
		c1,0.7,1.7,0.5,1.7,0.5l3.5,0c0,0,1.8-0.1,1-1.6c-0.1-0.1-0.5-1.1-2.6-3c-2.2-2-1.9-1.7,0.7-5.2c1.6-2.2,2.3-3.5,2.1-4
		c-0.2-0.5-1.4-0.4-1.4-0.4l-3.9,0c0,0-0.3,0-0.5,0.1c-0.2,0.1-0.3,0.4-0.3,0.4s-0.6,1.7-1.5,3.1c-1.8,3-2.5,3.1-2.7,3
		c-0.7-0.4-0.5-1.7-0.5-2.7c0-2.9,0.4-4.1-0.9-4.4c-0.4-0.1-0.7-0.2-1.8-0.2c-1.4,0-2.6,0-3.3,0.3c-0.4,0.2-0.8,0.7-0.6,0.7
		c0.3,0,0.9,0.2,1.2,0.6c0.4,0.6,0.4,1.8,0.4,1.8s0.2,3.4-0.5,3.8c-0.5,0.3-1.3-0.3-2.8-3c-0.8-1.4-1.4-2.9-1.4-2.9
		s-0.1-0.3-0.3-0.4c-0.3-0.2-0.6-0.2-0.6-0.2l-3.8,0c0,0-0.6,0-0.8,0.3c-0.2,0.2,0,0.7,0,0.7s2.9,6.9,6.3,10.3
		C15.8,29,19.2,28.8,19.2,28.8L19.2,28.8z"/>
</g>
</svg>
