<?xml version="1.0" encoding="utf-8"?>
<!-- Generator: Adobe Illustrator 22.0.1, SVG Export Plug-In . SVG Version: 6.00 Build 0)  -->
<svg version="1.1" id="Слой_1" xmlns="http://www.w3.org/2000/svg" xmlns:xlink="http://www.w3.org/1999/xlink" x="0px" y="0px"
	 viewBox="0 0 40 40" style="enable-background:new 0 0 40 40;" xml:space="preserve">
<style type="text/css">
	.st0{fill:#4CAF50;}
	.st1{fill:#FAFAFA;}
</style>
<circle class="st0" cx="20" cy="20" r="20"/>
<path class="st1" d="M30.8,27.6c-0.5,1.3-2.3,2.3-3.7,2.7c-1,0.2-2.3,0.4-6.6-1.4c-5.5-2.3-9.1-7.9-9.4-8.3c-0.3-0.4-2.2-3-2.2-5.7
	s1.4-4,1.9-4.6c0.5-0.5,1.2-0.7,1.9-0.7c0.2,0,0.4,0,0.6,0c0.6,0,0.8,0.1,1.2,0.9c0.5,1.1,1.6,3.8,1.7,4.1c0.1,0.3,0.3,0.7,0.1,1
	c-0.2,0.4-0.3,0.5-0.6,0.9s-0.5,0.6-0.8,0.9c-0.3,0.3-0.5,0.6-0.2,1.2c0.3,0.5,1.4,2.3,3.1,3.8c2.1,1.9,3.8,2.5,4.4,2.7
	c0.5,0.2,1,0.1,1.3-0.2c0.4-0.5,0.9-1.2,1.5-2c0.4-0.5,0.9-0.6,1.4-0.4c0.5,0.2,3.2,1.5,3.8,1.8c0.6,0.3,0.9,0.4,1.1,0.6
	C31.2,25.2,31.2,26.3,30.8,27.6z"/>
</svg>
